<?xml version="1.0" encoding="UTF-8"?>
<svg id="Calque_2" data-name="Calque 2" xmlns="http://www.w3.org/2000/svg" viewBox="0 0 45 45">
  <defs>
    <style>
      .cls-1 {
        fill: #fff;
      }
    </style>
  </defs>
  <g id="Calque_1-2" data-name="Calque 1">
    <g>
      <path d="M36.32,0H8.68C3.89,0,0,3.89,0,8.68v27.64c0,4.8,3.89,8.68,8.68,8.68h27.64c4.8,0,8.68-3.89,8.68-8.68V8.68c0-4.8-3.89-8.68-8.68-8.68ZM36,17.54c-.5.73-1.1,1.41-1.84,2.09-.42.39-.47.83-.54,1.44l-.26,2.16.1.06c1.53.94,2.44,3.68,2.17,6.51,0,.05,0,.08-.01.12,0,.05-.01.08-.02.11-.22,1.31-.71,2.33-1.36,2.88-.36.31-.77.47-1.19.47-.22,0-.45-.04-.68-.13l-.3-.11-.1.95c-.26,2.39-.61,5.67-1.86,6.67-.15.12-.32.18-.51.18-.81,0-1.77-1.17-1.85-2.84-.05-1.05.3-1.91.65-2.26.13-.13.26-.2.38-.2.15,0,.45.1.76.78.35.77.36,1.86.02,2.54-.04.08-.08.14-.12.2l.27.29c.73-.43,1.26-2.45,1.73-6.55v-.11s-.07-.06-.07-.06c-.13-.1-.26-.23-.38-.35-.08-.08-.16-.16-.23-.22-.46-.4-.85-.86-1.21-1.42-1.05-1.61-1.6-3.9-1.42-5.98.21-2.49,1.25-4.27,3.15-5.43-.1-.13-.18-.33-.2-.65-.02-.27.04-.56.1-.86.03-.18.07-.35.09-.52.13-1.11.06-2.06-.2-2.82-.29-.83-.76-1.29-1.33-1.29-.52,0-1.23.43-1.52,1.63-.06.26-.1.53-.15.81l-.06.37-1.54,8.76c-.21,1.27-.63,2.15-1.24,2.68-.42.37-.95.56-1.52.56-1.48,0-3.18-1.31-3.78-3.8-.61,3.48-1.27,7.18-1.29,7.28,0,.05-.02.1-.03.17l-.02.07-.02.15c-.1.89-.38,1.57-.83,1.97-.29.26-.63.39-1.02.39h0c-.94,0-2.15-.84-2.58-2.68-.37-1.61.21-3.05.98-3.51.24-.15.5-.22.78-.22.67,0,1.37.44,1.91,1.2l.54.76,1.52-8.61c.13-.65.3-1.54-.38-1.98-.55-.35-1.13-.55-1.7-.75-.27-.09-.53-.18-.78-.29l-3.59-1.49c-.06-.03-.13-.07-.21-.11-.23-.13-.46-.27-.71-.27h-.04l-.1.02c-.7.16-.81.88-.89,1.4l-1.02,5.78-.28,1.52c-.19,1.02-.38,2.04-.54,3.08l-.04.29c-.01.14-.03.28-.06.42-.12.56-.34.94-.5,1.15-.34.45-.77.68-1.28.68-.19,0-.38-.03-.58-.1-1.2-.4-2.81-2.81-1.86-5.07.24-.57.7-1.25,1.52-1.25.69,0,1.43.46,1.99,1.23l.54.74,2.23-12.67.08-.5c.09-.59.2-1.32.43-1.63.06-.08.13-.13.27-.13.29,0,.7.2,1.02.37.15.08.29.15.42.2.74.31,1.49.61,2.23.9,1.46.58,2.97,1.18,4.44,1.87,1.01.48.71,2.18.47,3.55,0,0-.09.52-.24,1.35.25-.27.52-.49.8-.62.31-.14.64-.22.98-.22,1.17,0,2.34.83,3.12,2.21l.61,1.09,2.34-13.26c.08-.45.15-.92.23-1.39.14-.93.29-1.89.5-2.74.1-.39.22-.48.23-.48.07,0,.35.23.47.91.05.3.09.6.13.9.07.51.13,1.02.25,1.52.23,1,.57,1.93,1.09,3.01,1.32,2.76,1.39,6.44.22,8.64.43-.23.89-.44,1.4-.61l.16-.05.02-.16c.37-2.4.81-5.33,1.8-7.03.31-.53.74-.85,1.14-.85.56,0,1.03.57,1.27,1.56.55,2.26-.87,4.68-1.51,5.61Z"/>
      <path d="M32.07,25.66c-.53.11-.94.44-1.26,1.01-.05.08-.09.19-.14.3-.05.11-.13.32-.18.36,0,0-.06-.06-.13-.24-.28-.73.21-2.36.48-2.9.36-.72.91-1.12,1.59-1.18l.22-.02.28-2.22-.38.25c-.11.07-.21.14-.31.23-.68.57-1.45,1.25-2.07,2.23-1.39,2.2-.7,5.58.82,7.35.1.11.19.2.29.29l.33.3.72-5.81-.27.05Z"/>
      <path d="M32.98,26.2c-.23,1.8-.46,3.59-.7,5.38l-.02.18.17.03c.07.01.14.02.2.02.75,0,1.37-.75,1.66-2,.26-1.52-.11-3.04-.91-3.8l-.33-.32-.06.5Z"/>
      <path d="M36.24,12.17c-.15,0-.37.06-.6.32-.66.74-.91,1.99-1.16,3.2l-.02.12c-.11.54-.2,1.08-.3,1.62l-.1.57.46-.41c.54-.51,1.06-1.21,1.69-2.22.25-.41.6-.97.7-1.61.15-.88-.15-1.58-.67-1.58Z"/>
      <path class="cls-1" d="M36.24,10.37c-.4,0-.83.32-1.14.85-.99,1.7-1.44,4.63-1.8,7.03l-.02.16-.16.05c-.51.17-.97.38-1.4.61,1.17-2.2,1.1-5.88-.22-8.64-.52-1.08-.86-2.01-1.09-3.01-.12-.51-.19-1.01-.25-1.52-.04-.3-.08-.6-.13-.9-.12-.69-.4-.91-.47-.91,0,0-.13.09-.23.48-.21.85-.36,1.81-.5,2.74-.07.47-.15.94-.23,1.39l-2.34,13.26-.61-1.09c-.78-1.39-1.94-2.21-3.12-2.21-.35,0-.68.07-.98.22-.28.13-.56.35-.8.62.15-.83.24-1.35.24-1.35.24-1.37.54-3.07-.47-3.55-1.47-.69-2.98-1.29-4.44-1.87-.75-.3-1.49-.59-2.23-.9-.13-.05-.27-.12-.42-.2-.33-.16-.73-.37-1.02-.37-.15,0-.21.05-.27.13-.23.31-.34,1.04-.43,1.63l-.08.5-2.23,12.67-.54-.74c-.56-.77-1.31-1.23-1.99-1.23-.82,0-1.28.68-1.52,1.25-.95,2.25.66,4.67,1.86,5.07.19.07.39.1.58.1.51,0,.94-.23,1.28-.68.16-.21.38-.59.5-1.15.03-.14.04-.28.06-.42l.04-.29c.16-1.03.35-2.06.54-3.08l.28-1.52,1.02-5.78c.08-.53.2-1.25.89-1.4l.1-.02h.04c.25,0,.48.14.71.27.08.05.15.09.21.11l3.59,1.49c.25.11.52.2.78.29.57.2,1.15.4,1.7.75.68.44.51,1.33.38,1.98l-1.52,8.61-.54-.76c-.54-.76-1.24-1.2-1.91-1.2-.27,0-.54.07-.78.22-.78.47-1.35,1.91-.98,3.51.43,1.84,1.64,2.68,2.58,2.68h0c.39,0,.73-.13,1.02-.39.45-.4.73-1.08.83-1.97l.02-.15.02-.07c0-.07.02-.13.03-.17.02-.1.67-3.8,1.29-7.28.6,2.49,2.3,3.8,3.78,3.8.57,0,1.09-.19,1.52-.56.61-.53,1.03-1.41,1.24-2.68l1.54-8.76.06-.37c.04-.27.09-.55.15-.81.29-1.2,1-1.63,1.52-1.63.57,0,1.05.46,1.33,1.29.26.76.33,1.71.2,2.82-.02.17-.05.35-.09.52-.06.3-.11.59-.1.86.02.32.11.53.2.65-1.9,1.16-2.94,2.94-3.15,5.43-.17,2.08.37,4.37,1.42,5.98.36.55.76,1.02,1.21,1.42.07.06.15.14.23.22.12.12.25.25.38.35l.08.06v.11c-.48,4.1-1.02,6.12-1.74,6.55l-.27-.29c.04-.06.08-.13.12-.2.34-.68.33-1.77-.02-2.54-.31-.68-.61-.78-.76-.78-.12,0-.25.07-.38.2-.35.36-.7,1.22-.65,2.26.08,1.67,1.04,2.84,1.85,2.84.18,0,.35-.06.51-.18,1.24-.99,1.6-4.27,1.86-6.67l.1-.95.3.11c.23.09.46.13.68.13.43,0,.83-.16,1.19-.47.65-.56,1.14-1.58,1.36-2.88,0-.03.01-.06.02-.11,0-.04,0-.07.01-.12.27-2.83-.64-5.57-2.17-6.51l-.1-.06.26-2.16c.07-.61.12-1.05.54-1.44.74-.68,1.35-1.36,1.84-2.09.64-.93,2.06-3.35,1.51-5.61-.24-.99-.71-1.56-1.27-1.56ZM31.62,31.42l-.33-.3c-.1-.09-.19-.18-.29-.29-1.52-1.77-2.21-5.15-.82-7.35.61-.97,1.39-1.66,2.07-2.23.1-.08.2-.15.31-.23l.38-.25-.28,2.22-.22.02c-.68.06-1.23.46-1.59,1.18-.27.54-.77,2.17-.48,2.9.07.17.14.23.13.24.05-.04.14-.25.18-.36.05-.11.09-.21.14-.3.32-.57.73-.9,1.26-1.01l.27-.05-.72,5.81ZM33.37,26.02c.8.76,1.17,2.28.91,3.8-.29,1.25-.92,2-1.66,2-.07,0-.13,0-.2-.02l-.17-.03.02-.18c.24-1.79.47-3.59.7-5.38l.06-.5.33.32ZM36.91,13.74c-.11.64-.45,1.2-.7,1.61-.62,1.02-1.15,1.71-1.69,2.22l-.46.41.1-.57c.09-.54.19-1.08.3-1.62l.02-.12c.25-1.21.5-2.46,1.16-3.2.23-.27.46-.32.6-.32.52,0,.82.69.67,1.58Z"/>
    </g>
  </g>
</svg>