<?xml version="1.0" encoding="UTF-8"?>
<svg id="Calque_2" data-name="Calque 2" xmlns="http://www.w3.org/2000/svg" viewBox="0 0 45 45">
  <g id="Calque_1-2" data-name="Calque 1">
    <g>
      <path d="M36.32,0H8.68C3.89,0,0,3.89,0,8.68v27.64c0,4.8,3.89,8.68,8.68,8.68h27.64c4.8,0,8.68-3.89,8.68-8.68V8.68c0-4.8-3.89-8.68-8.68-8.68ZM36,17.54c-.5.73-1.1,1.41-1.84,2.09-.42.39-.47.83-.54,1.44l-.26,2.16.1.06c1.53.94,2.44,3.68,2.17,6.51,0,.05,0,.08-.01.12,0,.05-.01.08-.02.11-.22,1.31-.71,2.33-1.36,2.88-.36.31-.77.47-1.19.47-.22,0-.45-.04-.68-.13l-.3-.11-.1.95c-.26,2.39-.61,5.67-1.86,6.67-.15.12-.32.18-.51.18-.81,0-1.77-1.17-1.85-2.84-.05-1.05.3-1.91.65-2.26.13-.13.26-.2.38-.2.15,0,.45.1.76.78.35.77.36,1.86.02,2.54-.04.08-.08.14-.12.2l.27.29c.73-.43,1.26-2.45,1.73-6.55v-.11s-.07-.06-.07-.06c-.13-.1-.26-.23-.38-.35-.08-.08-.16-.16-.23-.22-.46-.4-.85-.86-1.21-1.42-1.05-1.61-1.6-3.9-1.42-5.98.21-2.49,1.25-4.27,3.15-5.43-.1-.13-.18-.33-.2-.65-.02-.27.04-.56.1-.86.03-.18.07-.35.09-.52.13-1.11.06-2.06-.2-2.82-.29-.83-.76-1.29-1.33-1.29-.52,0-1.23.43-1.52,1.63-.06.26-.1.53-.15.81l-.06.37-1.54,8.76c-.21,1.27-.63,2.15-1.24,2.68-.42.37-.95.56-1.52.56-1.48,0-3.18-1.31-3.78-3.8-.61,3.48-1.27,7.18-1.29,7.28,0,.05-.02.1-.03.17l-.02.07-.02.15c-.1.89-.38,1.57-.83,1.97-.29.26-.63.39-1.02.39h0c-.94,0-2.15-.84-2.58-2.68-.37-1.61.21-3.05.98-3.51.24-.15.5-.22.78-.22.67,0,1.37.44,1.91,1.2l.54.76,1.52-8.61c.13-.65.3-1.54-.38-1.98-.55-.35-1.13-.55-1.7-.75-.27-.09-.53-.18-.78-.29l-3.59-1.49c-.06-.03-.13-.07-.21-.11-.23-.13-.46-.27-.71-.27h-.04l-.1.02c-.7.16-.81.88-.89,1.4l-1.02,5.78-.28,1.52c-.19,1.02-.38,2.04-.54,3.08l-.04.29c-.01.14-.03.28-.06.42-.12.56-.34.94-.5,1.15-.34.45-.77.68-1.28.68-.19,0-.38-.03-.58-.1-1.2-.4-2.81-2.81-1.86-5.07.24-.57.7-1.25,1.52-1.25.69,0,1.43.46,1.99,1.23l.54.74,2.23-12.67.08-.5c.09-.59.2-1.32.43-1.63.06-.08.13-.13.27-.13.29,0,.7.2,1.02.37.15.08.29.15.42.2.74.31,1.49.61,2.23.9,1.46.58,2.97,1.18,4.44,1.87,1.01.48.71,2.18.47,3.55,0,0-.09.52-.24,1.35.25-.27.52-.49.8-.62.31-.14.64-.22.98-.22,1.17,0,2.34.83,3.12,2.21l.61,1.09,2.34-13.26c.08-.45.15-.92.23-1.39.14-.93.29-1.89.5-2.74.1-.39.22-.48.23-.48.07,0,.35.23.47.91.05.3.09.6.13.9.07.51.13,1.02.25,1.52.23,1,.57,1.93,1.09,3.01,1.32,2.76,1.39,6.44.22,8.64.43-.23.89-.44,1.4-.61l.16-.05.02-.16c.37-2.4.81-5.33,1.8-7.03.31-.53.74-.85,1.14-.85.56,0,1.03.57,1.27,1.56.55,2.26-.87,4.68-1.51,5.61Z"/>
      <path d="M32.07,25.66c-.53.11-.94.44-1.26,1.01-.05.08-.09.19-.14.3-.05.11-.13.32-.18.36,0,0-.06-.06-.13-.24-.28-.73.21-2.36.48-2.9.36-.72.91-1.12,1.59-1.18l.22-.02.28-2.22-.38.25c-.11.07-.21.14-.31.23-.68.57-1.45,1.25-2.07,2.23-1.39,2.2-.7,5.58.82,7.35.1.11.19.2.29.29l.33.3.72-5.81-.27.05Z"/>
      <path d="M32.98,26.2c-.23,1.8-.46,3.59-.7,5.38l-.02.18.17.03c.07.01.14.02.2.02.75,0,1.37-.75,1.66-2,.26-1.52-.11-3.04-.91-3.8l-.33-.32-.06.5Z"/>
      <path d="M36.24,12.17c-.15,0-.37.06-.6.32-.66.74-.91,1.99-1.16,3.2l-.02.12c-.11.54-.2,1.08-.3,1.62l-.1.57.46-.41c.54-.51,1.06-1.21,1.69-2.22.25-.41.6-.97.7-1.61.15-.88-.15-1.58-.67-1.58Z"/>
    </g>
  </g>
</svg>